<svg width="25" height="26" viewBox="0 0 25 26" fill="none" xmlns="http://www.w3.org/2000/svg">
<path d="M25 12.8571C25 19.9579 19.4036 25.7143 12.5 25.7143C5.59644 25.7143 0 19.9579 0 12.8571C0 5.75634 5.59644 0 12.5 0C19.4036 0 25 5.75634 25 12.8571Z" fill="#52ABFF"/>
<path d="M15.2319 5.00935C15.198 5.01114 15.0819 5.02364 14.973 5.03257C13.4138 5.1808 11.8832 6.3024 10.9349 7.98657C10.8599 8.12231 10.7456 8.34555 10.683 8.48486C10.6205 8.62417 10.5598 8.73668 10.5473 8.73668C10.5366 8.7349 10.3919 8.67953 10.2276 8.61524C9.69362 8.40449 9.38286 8.35091 8.91314 8.38663C8.15053 8.44557 7.47365 8.67775 6.82891 9.10102C6.2574 9.47429 5.72875 10.0172 5.36441 10.6048C5.19653 10.8763 5.00543 11.2888 4.90005 11.6121C4.84648 11.7746 4.80183 11.9193 4.80183 11.9354C4.80183 11.9693 4.78754 11.9693 4.57679 11.9247C3.95885 11.7961 3.09979 11.9372 2.46756 12.2747C1.96391 12.5426 1.52456 12.9534 1.23345 13.4302C0.678008 14.3375 0.560133 15.552 0.919115 16.6236C1.26559 17.6541 2.03178 18.4845 2.99263 18.8721C3.44984 19.0578 3.74631 19.1132 4.24817 19.1132C4.57858 19.1132 4.63573 19.1096 4.8429 19.065C5.11973 19.006 5.48407 18.8882 5.76804 18.7649L5.98057 18.6739L6.13595 18.8167C6.67532 19.3061 7.25576 19.6579 7.88799 19.8758C8.31127 20.0205 8.67382 20.0919 9.15782 20.1241C10.2098 20.1955 11.2492 19.9044 12.2636 19.2543L12.4119 19.1596L12.5851 19.3132C13.1263 19.7919 13.8049 20.1026 14.58 20.2259C14.8533 20.2687 15.4587 20.2687 15.6963 20.2259C16.5375 20.0723 17.2537 19.6704 17.9055 18.9935C18.0931 18.7971 18.3556 18.4685 18.4717 18.2827L18.5235 18.2006L18.8289 18.347C19.3772 18.6113 19.6415 18.6935 19.9862 18.7078C21.0149 18.7507 22.0365 18.2131 22.7062 17.2754C23.5064 16.1556 23.7778 14.5125 23.4099 13.0248C23.0331 11.4996 22.0186 10.3619 20.7417 10.0333C20.6274 10.0029 20.5148 9.97972 20.4916 9.97972C20.4684 9.97972 20.4452 9.97258 20.4398 9.96365C20.4327 9.95472 20.413 9.85649 20.3934 9.74397C19.9987 7.47758 18.4574 5.65587 16.5089 5.14866C16.0499 5.029 15.5677 4.9772 15.2319 5.00935Z" fill="white"/>
<path d="M9.11827 8.57143C9.36389 8.57143 9.58496 8.62504 9.78146 8.73228C9.98498 8.83057 10.171 8.94227 10.3394 9.06737C10.5148 9.19247 10.6798 9.30864 10.8342 9.41587C10.9885 9.51417 11.1465 9.56332 11.3079 9.56332C11.4342 9.55438 11.5781 9.53204 11.7395 9.4963C11.8798 9.46055 12.0412 9.40694 12.2237 9.33545C12.4132 9.25503 12.6237 9.13886 12.8553 8.98695C12.6237 9.2729 12.4342 9.51417 12.2869 9.71076C12.1465 9.89841 12.0377 10.0548 11.9605 10.1799C11.8693 10.3229 11.8026 10.4346 11.7605 10.515C11.7184 10.6133 11.6553 10.7607 11.571 10.9573C11.4938 11.136 11.3886 11.3773 11.2552 11.6811C11.1219 11.976 10.9535 12.3647 10.7499 12.8473C10.7499 12.2307 10.7008 11.7526 10.6026 11.4131C10.5113 11.0735 10.4096 10.8143 10.2973 10.6356C10.1639 10.4301 10.0131 10.3005 9.84462 10.2469C9.69023 10.2201 9.53583 10.2558 9.38144 10.3541C9.22704 10.4435 9.07265 10.5775 8.91825 10.7563C8.77088 10.935 8.62701 11.1494 8.48665 11.3996C8.35331 11.6409 8.2305 11.8956 8.11821 12.1637C8.01294 12.4317 7.92522 12.7043 7.85504 12.9813C7.78486 13.2494 7.73924 13.4996 7.71819 13.7319C7.69713 13.9374 7.69362 14.1787 7.70766 14.4557C7.7217 14.7238 7.75328 15.0008 7.8024 15.2868C7.85153 15.5638 7.91469 15.8363 7.99189 16.1044C8.06908 16.3725 8.16383 16.6138 8.27611 16.8282C8.39542 17.0337 8.52876 17.2035 8.67614 17.3376C8.82351 17.4627 8.99194 17.5208 9.18143 17.5118C9.39197 17.4939 9.59899 17.4135 9.80252 17.2705C9.97796 17.1544 10.1569 16.9757 10.3394 16.7344C10.5219 16.4842 10.7008 15.2734 10.8342 14.8176L12.2237 14.8847C11.7746 15.5817 11.4833 17.2571 11.0552 17.6056C10.6341 17.9541 10.2552 18.1999 9.91831 18.3429C9.52531 18.5037 9.15336 18.5797 8.80246 18.5707C8.36033 18.5082 7.94627 18.3384 7.56028 18.0614C7.1743 17.7844 6.84095 17.4493 6.56023 17.0561C6.28653 16.654 6.07248 16.2161 5.91809 15.7425C5.76369 15.2689 5.69702 14.8042 5.71808 14.3485C5.73211 14.0447 5.78124 13.6917 5.86545 13.2896C5.94967 12.8785 6.06195 12.4586 6.20231 12.0296C6.34969 11.6007 6.52514 11.1807 6.72866 10.7697C6.93218 10.3586 7.15675 9.99224 7.40238 9.67055C7.64801 9.33992 7.91469 9.07631 8.20243 8.87972C8.49718 8.67419 8.80246 8.57143 9.11827 8.57143Z" fill="#52ABFF"/>
<path d="M11.9921 8.96014C12.2377 8.99588 12.4448 9.02269 12.6132 9.04056C12.7816 9.0495 12.915 9.05844 13.0132 9.06737C13.1325 9.07631 13.2273 9.08078 13.2974 9.08078C13.4168 9.08078 13.5536 9.07631 13.708 9.06737C13.8413 9.05844 13.9957 9.04503 14.1712 9.02716C14.3536 9.00035 14.5502 8.96014 14.7607 8.90653C14.6624 9.04056 14.5817 9.17013 14.5186 9.29524C14.4554 9.4114 14.4063 9.51864 14.3712 9.61693C14.3291 9.72416 14.294 9.82246 14.2659 9.91182C14.2379 10.028 14.2063 10.2067 14.1712 10.448C14.1361 10.6535 14.0975 10.9439 14.0554 11.3192C14.0203 11.6945 13.9747 12.186 13.9185 12.7936C14.1571 12.8026 14.3642 12.8071 14.5396 12.8071C14.7151 12.7981 14.8624 12.7936 14.9818 12.7936H15.3291C15.4274 12.7847 15.5397 12.7758 15.666 12.7668C15.8765 12.7579 16.1959 12.7311 16.624 12.6864C16.659 12.2754 16.6766 11.9224 16.6766 11.6275C16.6836 11.3237 16.6801 11.069 16.6661 10.8635C16.652 10.6312 16.631 10.4346 16.6029 10.2737C16.5818 10.1844 16.5503 10.0771 16.5082 9.95203C16.4731 9.8448 16.4239 9.71523 16.3608 9.56332C16.3046 9.40247 16.2274 9.21035 16.1292 8.98695C16.3117 9.02269 16.4731 9.0495 16.6134 9.06737C16.7608 9.07631 16.8836 9.08524 16.9819 9.09418C17.0942 9.10312 17.1889 9.10758 17.2661 9.10758C17.3433 9.10758 17.4451 9.10312 17.5714 9.09418C17.6766 9.08524 17.8065 9.08078 17.9609 9.08078C18.1153 9.07184 18.3047 9.05844 18.5293 9.04056C18.4732 9.16567 18.4241 9.29524 18.3819 9.42928C18.3398 9.56332 18.3047 9.68395 18.2767 9.79118C18.2486 9.91628 18.2205 10.0414 18.1925 10.1665C18.1574 10.3541 18.1258 10.6267 18.0977 10.9841C18.0767 11.3416 18.0556 11.7392 18.0346 12.1771C18.0205 12.6149 18.0065 13.0707 17.9924 13.5443C17.9854 14.0179 17.9784 14.4647 17.9714 14.8847C17.9714 15.3046 17.9749 15.68 17.9819 16.0106C17.9889 16.3323 18.003 16.5601 18.024 16.6942C18.0451 16.855 18.0802 17.0203 18.1293 17.1901C18.1714 17.342 18.2276 17.5073 18.2977 17.6861C18.3679 17.8558 18.4591 18.0167 18.5714 18.1686L16.0344 18.4099C16.1397 18.2848 16.2239 18.1641 16.2871 18.048C16.3503 17.9229 16.3994 17.8156 16.4345 17.7263C16.4696 17.628 16.4941 17.5342 16.5082 17.4448C16.5152 17.3376 16.5257 17.1499 16.5397 16.8818C16.5538 16.6584 16.5678 16.3412 16.5818 15.9302C16.5959 15.5191 16.6099 14.974 16.624 14.2949C16.5257 14.2949 16.4064 14.2994 16.266 14.3083C16.1327 14.3083 16.0064 14.3128 15.8871 14.3217C15.7467 14.3306 15.5993 14.3351 15.4449 14.3351C15.2905 14.344 15.1291 14.353 14.9607 14.3619C14.8203 14.3798 14.6624 14.3976 14.487 14.4155C14.3186 14.4245 14.1501 14.4379 13.9817 14.4557C13.9677 14.831 13.9677 15.1617 13.9817 15.4476C13.9957 15.7246 14.0168 15.9614 14.0449 16.158C14.0729 16.3904 14.108 16.5914 14.1501 16.7612C14.1922 16.922 14.2379 17.0829 14.287 17.2437C14.3291 17.3867 14.3782 17.5386 14.4344 17.6995C14.4975 17.8603 14.5607 18.0033 14.6238 18.1284C14.4905 18.1105 14.3677 18.0971 14.2554 18.0882C14.1431 18.0703 14.0449 18.0524 13.9606 18.0346C13.8624 18.0256 13.7676 18.0167 13.6764 18.0078C13.5852 18.0078 13.4764 18.0033 13.3501 17.9944C13.2378 17.9854 13.0974 17.981 12.929 17.981C12.7606 17.972 12.5641 17.9675 12.3395 17.9675C12.4728 17.7978 12.5781 17.6325 12.6553 17.4716C12.7395 17.3018 12.7992 17.1499 12.8343 17.0159C12.8764 16.855 12.9044 16.7076 12.9185 16.5735C12.9255 16.4574 12.929 16.2384 12.929 15.9168C12.936 15.5951 12.936 15.2287 12.929 14.8176C12.929 14.3976 12.9255 13.9598 12.9185 13.5041C12.9115 13.0394 12.9009 12.606 12.8869 12.2039C12.8799 11.8018 12.8694 11.4577 12.8553 11.1718C12.8483 10.8769 12.8413 10.6937 12.8343 10.6222C12.7992 10.4614 12.7465 10.2871 12.6764 10.0995C12.6132 9.94756 12.529 9.77331 12.4237 9.57672C12.3184 9.37119 12.1746 9.16567 11.9921 8.96014Z" fill="#52ABFF"/>
</svg>
