<svg width="240" height="70" viewBox="0 0 170 36" fill="none" xmlns="http://www.w3.org/2000/svg">
<path d="M48.58 26.22C46.3133 26.22 44.58 25.5467 43.38 24.2C42.18 22.84 41.58 20.9867 41.58 18.64C41.58 17.0933 41.8933 15.7467 42.52 14.6C43.16 13.44 44.0333 12.5467 45.14 11.92C46.2467 11.2933 47.5 10.98 48.9 10.98C49.4867 10.98 50.0533 11.02 50.6 11.1C51.1467 11.1667 51.7933 11.26 52.54 11.38C53.1 11.4733 53.4067 11.52 53.46 11.52L53.24 15.64H51.4L50.78 12.78C50.6333 12.6333 50.38 12.5133 50.02 12.42C49.66 12.3267 49.2 12.28 48.64 12.28C47.5067 12.28 46.5933 12.8067 45.9 13.86C45.22 14.9 44.88 16.4133 44.88 18.4C44.88 20.32 45.2067 21.8867 45.86 23.1C46.5133 24.3133 47.4667 24.92 48.72 24.92C49.32 24.92 49.78 24.8667 50.1 24.76C50.4333 24.64 50.7133 24.4733 50.94 24.26L51.82 22.2L53.5 22.36L53.1 25.46C52.82 25.4867 52.54 25.54 52.26 25.62C51.9933 25.6867 51.8267 25.7267 51.76 25.74C51.2267 25.8867 50.7267 26 50.26 26.08C49.8067 26.1733 49.2467 26.22 48.58 26.22Z" fill="#FFFDFD"/>
<path d="M55.0641 20.46C55.0641 19.2067 55.3107 18.14 55.8041 17.26C56.3107 16.38 56.9841 15.72 57.8241 15.28C58.6641 14.8267 59.5774 14.6 60.5641 14.6C62.2441 14.6 63.5374 15.12 64.4441 16.16C65.3641 17.1867 65.8241 18.5867 65.8241 20.36C65.8241 21.6267 65.5707 22.7067 65.0641 23.6C64.5707 24.48 63.9041 25.14 63.0641 25.58C62.2374 26.0067 61.3241 26.22 60.3241 26.22C58.6574 26.22 57.3641 25.7067 56.4441 24.68C55.5241 23.64 55.0641 22.2333 55.0641 20.46ZM60.4841 24.92C61.9907 24.92 62.7441 23.4667 62.7441 20.56C62.7441 19.04 62.5641 17.8867 62.2041 17.1C61.8441 16.3 61.2574 15.9 60.4441 15.9C58.8974 15.9 58.1241 17.3533 58.1241 20.26C58.1241 21.78 58.3107 22.94 58.6841 23.74C59.0707 24.5267 59.6707 24.92 60.4841 24.92Z" fill="#FFFDFD"/>
<path d="M71.8222 26.22C70.9955 26.22 70.2555 26.0267 69.6022 25.64C68.9489 25.24 68.4289 24.6267 68.0422 23.8C67.6555 22.9733 67.4622 21.94 67.4622 20.7C67.4622 19.58 67.6889 18.56 68.1422 17.64C68.6089 16.7067 69.2889 15.9667 70.1822 15.42C71.0755 14.8733 72.1489 14.6 73.4022 14.6C73.9089 14.6 74.3889 14.6533 74.8422 14.76V11.38L72.8822 11.1V10L77.0022 9.6H77.0622L77.6222 10.02V24.78H78.7022V25.92C77.7422 26.12 76.9489 26.22 76.3222 26.22C75.8955 26.22 75.5889 26.1467 75.4022 26C75.2289 25.8667 75.1422 25.5933 75.1422 25.18V24.62C74.7955 25.0867 74.3222 25.4733 73.7222 25.78C73.1222 26.0733 72.4889 26.22 71.8222 26.22ZM72.8622 24.56C73.3022 24.56 73.6889 24.4733 74.0222 24.3C74.3689 24.1133 74.6422 23.8933 74.8422 23.64V16.36C74.7489 16.2267 74.5489 16.1133 74.2422 16.02C73.9489 15.9267 73.6289 15.88 73.2822 15.88C72.4289 15.88 71.7422 16.2533 71.2222 17C70.7155 17.7333 70.4622 18.9133 70.4622 20.54C70.4622 21.9 70.6822 22.9133 71.1222 23.58C71.5622 24.2333 72.1422 24.56 72.8622 24.56Z" fill="#FFFDFD"/>
<path d="M85.2017 26.22C83.4417 26.22 82.1284 25.7067 81.2617 24.68C80.4084 23.64 79.9817 22.2267 79.9817 20.44C79.9817 19.24 80.2017 18.2 80.6417 17.32C81.095 16.44 81.7284 15.7667 82.5417 15.3C83.3551 14.8333 84.2951 14.6 85.3617 14.6C86.6951 14.6 87.7217 14.9533 88.4417 15.66C89.1617 16.3533 89.5351 17.3467 89.5617 18.64C89.5617 19.52 89.5084 20.1733 89.4017 20.6H82.9017C82.9551 21.8133 83.2417 22.76 83.7617 23.44C84.2817 24.1067 85.0217 24.44 85.9817 24.44C86.5017 24.44 87.0351 24.3533 87.5817 24.18C88.1417 24.0067 88.5817 23.8 88.9017 23.56L89.4017 24.66C89.0417 25.0467 88.455 25.4067 87.6417 25.74C86.8417 26.06 86.0284 26.22 85.2017 26.22ZM86.7617 19.4C86.7884 19.0267 86.8017 18.74 86.8017 18.54C86.8017 16.7667 86.2084 15.88 85.0217 15.88C84.3684 15.88 83.8617 16.14 83.5017 16.66C83.1417 17.18 82.9417 18.0933 82.9017 19.4H86.7617Z" fill="#FFFDFD"/>
<path d="M97.3839 12.64L95.9039 12.38V11.14H101.984V12.38L100.304 12.64V17.66H106.384V12.64L104.844 12.38V11.14H110.844V12.38L109.324 12.64V24.6L110.844 24.8V26H104.824V24.8L106.384 24.6V19.18H100.304V24.6L101.984 24.8V26H95.8639V24.8L97.3839 24.6V12.64Z" fill="#FFFDFD"/>
<path d="M117.643 26.22C115.883 26.22 114.57 25.7067 113.703 24.68C112.85 23.64 112.423 22.2267 112.423 20.44C112.423 19.24 112.643 18.2 113.083 17.32C113.536 16.44 114.17 15.7667 114.983 15.3C115.796 14.8333 116.736 14.6 117.803 14.6C119.136 14.6 120.163 14.9533 120.883 15.66C121.603 16.3533 121.976 17.3467 122.003 18.64C122.003 19.52 121.95 20.1733 121.843 20.6H115.343C115.396 21.8133 115.683 22.76 116.203 23.44C116.723 24.1067 117.463 24.44 118.423 24.44C118.943 24.44 119.476 24.3533 120.023 24.18C120.583 24.0067 121.023 23.8 121.343 23.56L121.843 24.66C121.483 25.0467 120.896 25.4067 120.083 25.74C119.283 26.06 118.47 26.22 117.643 26.22ZM119.203 19.4C119.23 19.0267 119.243 18.74 119.243 18.54C119.243 16.7667 118.65 15.88 117.463 15.88C116.81 15.88 116.303 16.14 115.943 16.66C115.583 17.18 115.383 18.0933 115.343 19.4H119.203Z" fill="#FFFDFD"/>
<path d="M123.379 22.88C123.379 21.6667 123.986 20.7533 125.199 20.14C126.426 19.5267 128.006 19.2133 129.939 19.2V18.74C129.939 18.1933 129.879 17.7667 129.759 17.46C129.653 17.1533 129.446 16.9267 129.139 16.78C128.846 16.62 128.413 16.54 127.839 16.54C127.186 16.54 126.599 16.6267 126.079 16.8C125.559 16.96 125.019 17.1733 124.459 17.44L123.839 16.16C124.039 15.9867 124.373 15.78 124.839 15.54C125.319 15.3 125.886 15.0933 126.539 14.92C127.193 14.7333 127.866 14.64 128.559 14.64C129.586 14.64 130.386 14.7733 130.959 15.04C131.546 15.3067 131.966 15.7333 132.219 16.32C132.473 16.9067 132.599 17.6933 132.599 18.68V24.8H133.679V25.92C133.413 25.9867 133.033 26.0533 132.539 26.12C132.046 26.1867 131.613 26.22 131.239 26.22C130.786 26.22 130.479 26.1533 130.319 26.02C130.173 25.8867 130.099 25.6133 130.099 25.2V24.66C129.739 25.06 129.273 25.42 128.699 25.74C128.126 26.06 127.479 26.22 126.759 26.22C126.146 26.22 125.579 26.0933 125.059 25.84C124.553 25.5733 124.146 25.1933 123.839 24.7C123.533 24.1933 123.379 23.5867 123.379 22.88ZM128.039 24.56C128.319 24.56 128.639 24.48 128.999 24.32C129.359 24.1467 129.673 23.94 129.939 23.7V20.42C128.739 20.42 127.839 20.6267 127.239 21.04C126.653 21.44 126.359 21.96 126.359 22.6C126.359 23.24 126.506 23.7267 126.799 24.06C127.106 24.3933 127.519 24.56 128.039 24.56Z" fill="#FFFDFD"/>
<path d="M133.907 14.88H139.187V16.04L137.867 16.3L139.687 21.74L140.327 23.86L140.867 21.8L142.647 16.3L141.387 16.04V14.88H145.787V16.04L144.747 16.3L141.027 26.16H138.707L134.727 16.3L133.907 16.04V14.88Z" fill="#FFFDFD"/>
<path d="M151.393 26.22C149.633 26.22 148.32 25.7067 147.453 24.68C146.6 23.64 146.173 22.2267 146.173 20.44C146.173 19.24 146.393 18.2 146.833 17.32C147.286 16.44 147.92 15.7667 148.733 15.3C149.546 14.8333 150.486 14.6 151.553 14.6C152.886 14.6 153.913 14.9533 154.633 15.66C155.353 16.3533 155.726 17.3467 155.753 18.64C155.753 19.52 155.7 20.1733 155.593 20.6H149.093C149.146 21.8133 149.433 22.76 149.953 23.44C150.473 24.1067 151.213 24.44 152.173 24.44C152.693 24.44 153.226 24.3533 153.773 24.18C154.333 24.0067 154.773 23.8 155.093 23.56L155.593 24.66C155.233 25.0467 154.646 25.4067 153.833 25.74C153.033 26.06 152.22 26.22 151.393 26.22ZM152.953 19.4C152.98 19.0267 152.993 18.74 152.993 18.54C152.993 16.7667 152.4 15.88 151.213 15.88C150.56 15.88 150.053 16.14 149.693 16.66C149.333 17.18 149.133 18.0933 149.093 19.4H152.953Z" fill="#FFFDFD"/>
<path d="M158.469 16.78L157.189 16.42V15.04L160.509 14.62H160.569L161.069 15.02V15.8L161.049 16.28C161.516 15.84 162.123 15.46 162.869 15.14C163.616 14.82 164.369 14.66 165.129 14.66C165.943 14.66 166.576 14.8133 167.029 15.12C167.496 15.4133 167.829 15.88 168.029 16.52C168.229 17.16 168.329 18.0267 168.329 19.12V24.64L169.549 24.8V26H164.389V24.8L165.469 24.64V19.12C165.469 18.4267 165.423 17.8867 165.329 17.5C165.236 17.1 165.063 16.8133 164.809 16.64C164.569 16.4533 164.223 16.36 163.769 16.36C163.009 16.36 162.196 16.6867 161.329 17.34V24.62L162.529 24.8V26H157.309V24.8L158.469 24.62V16.78Z" fill="#FFFDFD"/>
<path d="M35 18C35 27.9411 27.165 36 17.5 36C7.83502 36 0 27.9411 0 18C0 8.05887 7.83502 0 17.5 0C27.165 0 35 8.05887 35 18Z" fill="#52ABFF"/>
<path d="M21.3247 7.01309C21.2772 7.01559 21.1147 7.03309 20.9621 7.04559C18.7793 7.25312 16.6365 8.82336 15.3088 11.1812C15.2038 11.3712 15.0438 11.6838 14.9563 11.8788C14.8688 12.0738 14.7837 12.2314 14.7662 12.2314C14.7512 12.2289 14.5487 12.1513 14.3187 12.0613C13.5711 11.7663 13.136 11.6913 12.4784 11.7413C11.4107 11.8238 10.4631 12.1488 9.56047 12.7414C8.76035 13.264 8.02025 14.0241 7.51017 14.8467C7.27514 15.2268 7.0076 15.8044 6.86008 16.2569C6.78506 16.4845 6.72256 16.687 6.72256 16.7095C6.72256 16.757 6.70255 16.757 6.40751 16.6945C5.54238 16.5145 4.33971 16.712 3.45458 17.1846C2.74947 17.5596 2.13438 18.1347 1.72682 18.8023C0.949209 20.0725 0.784185 21.7728 1.28676 23.273C1.77183 24.7157 2.84449 25.8784 4.18968 26.4209C4.82978 26.681 5.24484 26.7585 5.94744 26.7585C6.41001 26.7585 6.49002 26.7535 6.78006 26.691C7.16762 26.6085 7.6777 26.4434 8.07525 26.2709L8.3728 26.1434L8.59033 26.3434C9.34544 27.0285 10.1581 27.5211 11.0432 27.8261C11.6358 28.0287 12.1434 28.1287 12.821 28.1737C14.2937 28.2737 15.7489 27.8661 17.1691 26.956L17.3766 26.8235L17.6192 27.0385C18.3768 27.7086 19.3269 28.1437 20.4121 28.3162C20.7946 28.3762 21.6422 28.3762 21.9748 28.3162C23.1525 28.1012 24.1551 27.5386 25.0677 26.591C25.3303 26.3159 25.6978 25.8559 25.8604 25.5958L25.9329 25.4808L26.3604 25.6858C27.1281 26.0559 27.4981 26.1709 27.9807 26.1909C29.4209 26.2509 30.8511 25.4983 31.7887 24.1856C32.9089 22.6179 33.289 20.3175 32.7739 18.2347C32.2463 16.0994 30.8261 14.5067 29.0383 14.0466C28.8783 14.0041 28.7208 13.9716 28.6883 13.9716C28.6558 13.9716 28.6233 13.9616 28.6158 13.9491C28.6058 13.9366 28.5783 13.7991 28.5508 13.6416C27.9982 10.4686 25.8404 7.91822 23.1125 7.20812C22.4699 7.04059 21.7948 6.96808 21.3247 7.01309Z" fill="white"/>
<path d="M12.7656 12C13.1095 12 13.4189 12.0751 13.694 12.2252C13.979 12.3628 14.2393 12.5192 14.4751 12.6943C14.7208 12.8695 14.9517 13.0321 15.1678 13.1822C15.384 13.3198 15.605 13.3886 15.831 13.3886C16.0079 13.3761 16.2093 13.3449 16.4353 13.2948C16.6318 13.2448 16.8577 13.1697 17.1132 13.0696C17.3785 12.957 17.6732 12.7944 17.9974 12.5817C17.6732 12.9821 17.4079 13.3198 17.2016 13.5951C17.0051 13.8578 16.8528 14.0767 16.7447 14.2519C16.617 14.452 16.5237 14.6084 16.4647 14.721C16.4058 14.8586 16.3174 15.065 16.1995 15.3402C16.0914 15.5905 15.944 15.9282 15.7573 16.3536C15.5706 16.7664 15.3348 17.3106 15.0499 17.9862C15.0499 17.123 14.9811 16.4537 14.8436 15.9783C14.7159 15.5029 14.5734 15.1401 14.4162 14.8899C14.2295 14.6021 14.0183 14.4207 13.7825 14.3457C13.5663 14.3081 13.3502 14.3582 13.134 14.4958C12.9179 14.6209 12.7017 14.8086 12.4856 15.0588C12.2792 15.309 12.0778 15.6092 11.8813 15.9595C11.6946 16.2973 11.5227 16.6538 11.3655 17.0291C11.2181 17.4044 11.0953 17.786 10.9971 18.1738C10.8988 18.5491 10.8349 18.8994 10.8055 19.2247C10.776 19.5124 10.7711 19.8502 10.7907 20.238C10.8104 20.6133 10.8546 21.0012 10.9234 21.4015C10.9921 21.7893 11.0806 22.1709 11.1886 22.5462C11.2967 22.9215 11.4294 23.2593 11.5866 23.5595C11.7536 23.8472 11.9403 24.0849 12.1466 24.2726C12.3529 24.4477 12.5887 24.5291 12.854 24.5165C13.1488 24.4915 13.4386 24.3789 13.7235 24.1788C13.9692 24.0161 14.2197 23.7659 14.4751 23.4281C14.7306 23.0779 14.9811 21.3827 15.1678 20.7447L17.1132 20.8385C16.4844 21.8143 16.0766 24.16 15.4773 24.6479C14.8878 25.1358 14.3572 25.4798 13.8856 25.68C13.3354 25.9052 12.8147 26.0115 12.3234 25.999C11.7045 25.9114 11.1248 25.6737 10.5844 25.2859C10.044 24.8981 9.57733 24.429 9.18432 23.8785C8.80114 23.3156 8.50148 22.7026 8.28532 22.0395C8.06917 21.3765 7.97583 20.7259 8.00531 20.0879C8.02496 19.6626 8.09373 19.1684 8.21163 18.6054C8.32954 18.03 8.48674 17.442 8.68324 16.8415C8.88957 16.241 9.1352 15.653 9.42012 15.0775C9.70505 14.5021 10.0195 13.9891 10.3633 13.5388C10.7072 13.0759 11.0806 12.7068 11.4834 12.4316C11.8961 12.1439 12.3234 12 12.7656 12Z" fill="#52ABFF"/>
<path d="M16.789 12.5442C17.1328 12.5942 17.4227 12.6318 17.6585 12.6568C17.8943 12.6693 18.081 12.6818 18.2185 12.6943C18.3855 12.7068 18.5182 12.7131 18.6164 12.7131C18.7835 12.7131 18.975 12.7068 19.1912 12.6943C19.3779 12.6818 19.594 12.663 19.8397 12.638C20.0951 12.6005 20.3702 12.5442 20.665 12.4691C20.5274 12.6568 20.4144 12.8382 20.326 13.0133C20.2376 13.176 20.1688 13.3261 20.1197 13.4637C20.0607 13.6138 20.0116 13.7514 19.9723 13.8765C19.933 14.0392 19.8888 14.2894 19.8397 14.6272C19.7905 14.9149 19.7365 15.3215 19.6775 15.8469C19.6284 16.3723 19.5646 17.0604 19.486 17.9111C19.82 17.9236 20.1098 17.9299 20.3555 17.9299C20.6011 17.9174 20.8074 17.9111 20.9745 17.9111H21.4608C21.5984 17.8986 21.7556 17.8861 21.9324 17.8736C22.2272 17.8611 22.6742 17.8235 23.2735 17.761C23.3227 17.1855 23.3472 16.6914 23.3472 16.2785C23.357 15.8532 23.3521 15.4966 23.3325 15.2089C23.3128 14.8836 23.2834 14.6084 23.2441 14.3832C23.2146 14.2581 23.1704 14.108 23.1114 13.9328C23.0623 13.7827 22.9935 13.6013 22.9051 13.3886C22.8265 13.1635 22.7184 12.8945 22.5809 12.5817C22.8363 12.6318 23.0623 12.6693 23.2588 12.6943C23.4651 12.7068 23.6371 12.7193 23.7746 12.7319C23.9318 12.7444 24.0645 12.7506 24.1725 12.7506C24.2806 12.7506 24.4231 12.7444 24.5999 12.7319C24.7473 12.7193 24.9291 12.7131 25.1452 12.7131C25.3614 12.7006 25.6266 12.6818 25.9411 12.6568C25.8625 12.8319 25.7937 13.0133 25.7347 13.201C25.6758 13.3886 25.6266 13.5575 25.5873 13.7077C25.548 13.8828 25.5087 14.0579 25.4694 14.2331C25.4203 14.4958 25.3761 14.8774 25.3368 15.3778C25.3073 15.8782 25.2779 16.4349 25.2484 17.0479C25.2287 17.6609 25.2091 18.2989 25.1894 18.962C25.1796 19.625 25.1698 20.2505 25.16 20.8385C25.16 21.4265 25.1649 21.9519 25.1747 22.4148C25.1845 22.8652 25.2042 23.1842 25.2336 23.3719C25.2631 23.597 25.3122 23.8285 25.381 24.0662C25.44 24.2788 25.5186 24.5103 25.6168 24.7605C25.7151 24.9982 25.8428 25.2234 26 25.4361L22.4482 25.7738C22.5956 25.5987 22.7135 25.4298 22.8019 25.2672C22.8904 25.092 22.9591 24.9419 23.0083 24.8168C23.0574 24.6792 23.0918 24.5478 23.1114 24.4227C23.1212 24.2726 23.136 24.0099 23.1556 23.6346C23.1753 23.3218 23.1949 22.8777 23.2146 22.3022C23.2342 21.7267 23.2539 20.9636 23.2735 20.0128C23.136 20.0128 22.969 20.0191 22.7725 20.0316C22.5858 20.0316 22.4089 20.0379 22.2419 20.0504C22.0454 20.0629 21.8391 20.0691 21.6229 20.0691C21.4068 20.0816 21.1808 20.0942 20.945 20.1067C20.7485 20.1317 20.5274 20.1567 20.2818 20.1817C20.046 20.1942 19.8102 20.213 19.5744 20.238C19.5547 20.7635 19.5547 21.2263 19.5744 21.6267C19.594 22.0145 19.6235 22.346 19.6628 22.6212C19.7021 22.9465 19.7512 23.228 19.8102 23.4657C19.8691 23.6909 19.933 23.9161 20.0018 24.1412C20.0607 24.3414 20.1295 24.5541 20.2081 24.7793C20.2965 25.0044 20.385 25.2046 20.4734 25.3798C20.2867 25.3547 20.1148 25.336 19.9576 25.3235C19.8004 25.2984 19.6628 25.2734 19.5449 25.2484C19.4074 25.2359 19.2747 25.2234 19.147 25.2109C19.0193 25.2109 18.867 25.2046 18.6901 25.1921C18.5329 25.1796 18.3364 25.1733 18.1006 25.1733C17.8648 25.1608 17.5897 25.1546 17.2753 25.1546C17.462 24.9169 17.6094 24.6854 17.7174 24.4602C17.8353 24.2226 17.9188 24.0099 17.968 23.8222C18.0269 23.597 18.0662 23.3906 18.0859 23.203C18.0957 23.0403 18.1006 22.7338 18.1006 22.2835C18.1104 21.8331 18.1104 21.3202 18.1006 20.7447C18.1006 20.1567 18.0957 19.5437 18.0859 18.9057C18.076 18.2551 18.0613 17.6484 18.0417 17.0854C18.0318 16.5225 18.0171 16.0408 17.9974 15.6405C17.9876 15.2277 17.9778 14.9712 17.968 14.8711C17.9188 14.6459 17.8452 14.402 17.7469 14.1393C17.6585 13.9266 17.5406 13.6826 17.3932 13.4074C17.2458 13.1197 17.0444 12.8319 16.789 12.5442Z" fill="#52ABFF"/>
</svg>
